<svg width="25" height="25" viewBox="0 0 25 25" fill="none" xmlns="http://www.w3.org/2000/svg">
<g clip-path="url(#clip0_454_9)">
<path d="M4.08 10.7238C4.00052 10.8048 3.9057 10.8691 3.80107 10.913C3.69644 10.9569 3.5841 10.9796 3.47062 10.9796C3.35715 10.9796 3.24481 10.9569 3.14018 10.913C3.03555 10.8691 2.94073 10.8048 2.86125 10.7238C2.69948 10.5592 2.60884 10.3377 2.60884 10.1069C2.60884 9.87612 2.69948 9.65459 2.86125 9.49001L10.4 1.87501C12.1 0.555012 13.81 -0.0787378 15.5125 0.00751215C17.6575 0.117512 19.3275 0.935012 20.745 2.27626C22.19 3.64376 23.125 5.59501 23.125 7.96001C23.125 9.77501 22.5975 11.3725 21.4838 12.79L10.855 23.74C9.78 24.6213 8.585 25.0475 7.305 24.9963C5.68 24.9288 4.47125 24.4038 3.5725 23.515C2.52 22.4763 1.875 21.2 1.875 19.4838C1.875 18.1188 2.34625 16.8588 3.31875 15.6763L12.6737 6.12501C13.4237 5.32501 14.1575 4.85001 14.9075 4.73501C15.4081 4.6566 15.9202 4.70159 16.3995 4.86606C16.8787 5.03052 17.3106 5.3095 17.6575 5.67876C18.3225 6.38251 18.6075 7.26001 18.5075 8.25876C18.4387 8.94001 18.16 9.56751 17.6475 10.1688L9.0475 18.9788C8.96854 19.0601 8.87419 19.1248 8.76995 19.1693C8.6657 19.2137 8.55365 19.237 8.44032 19.2377C8.327 19.2384 8.21467 19.2165 8.10988 19.1733C8.0051 19.1302 7.90995 19.0666 7.83 18.9863C7.66723 18.8227 7.57523 18.6017 7.57383 18.3709C7.57243 18.1402 7.66173 17.9181 7.8225 17.7525L16.3812 8.98751C16.6312 8.69376 16.7625 8.39751 16.7938 8.08251C16.8438 7.58251 16.7238 7.21376 16.4125 6.88501C16.2552 6.71682 16.0588 6.59004 15.8407 6.51591C15.6227 6.44177 15.3897 6.42258 15.1625 6.46001C14.8588 6.50626 14.4338 6.78251 13.91 7.34001L4.59375 16.8488C3.9225 17.6675 3.5975 18.5363 3.5975 19.485C3.5975 20.6775 4.02875 21.5313 4.775 22.2675C5.36875 22.855 6.175 23.205 7.375 23.255C8.225 23.2888 9.0125 23.0075 9.6975 22.4525L20.1938 11.64C21 10.6063 21.4025 9.39001 21.4025 7.96126C21.4025 6.10876 20.6813 4.60626 19.5675 3.55126C18.43 2.47376 17.13 1.83876 15.4262 1.75126C14.1662 1.68626 12.845 2.17626 11.53 3.18376L4.08 10.7238Z" fill="black"/>
</g>
<defs>
<clipPath id="clip0_454_9">
<rect width="25" height="25" fill="white"/>
</clipPath>
</defs>
</svg>
