<svg width="41" height="41" viewBox="0 0 41 41" fill="none" xmlns="http://www.w3.org/2000/svg">
<path d="M20.5 25.6248C20.984 25.6248 21.3901 25.4608 21.7181 25.1328C22.0461 24.8048 22.2095 24.3994 22.2084 23.9165C22.2072 23.4336 22.0432 23.0282 21.7164 22.7002C21.3895 22.3722 20.984 22.2082 20.5 22.2082C20.016 22.2082 19.6105 22.3722 19.2837 22.7002C18.9568 23.0282 18.7928 23.4336 18.7917 23.9165C18.7905 24.3994 18.9545 24.8054 19.2837 25.1345C19.6128 25.4637 20.0183 25.6271 20.5 25.6248ZM18.7917 18.7915H22.2084V8.5415H18.7917V18.7915ZM3.41669 37.5832V6.83317C3.41669 5.89359 3.75152 5.08953 4.42119 4.421C5.09085 3.75248 5.89491 3.41764 6.83335 3.4165H34.1667C35.1063 3.4165 35.9109 3.75134 36.5806 4.421C37.2502 5.09067 37.5845 5.89473 37.5834 6.83317V27.3332C37.5834 28.2728 37.2491 29.0774 36.5806 29.747C35.912 30.4167 35.1074 30.751 34.1667 30.7498H10.25L3.41669 37.5832ZM8.79794 27.3332H34.1667V6.83317H6.83335V29.255L8.79794 27.3332Z" fill="white"/>
</svg>
