<svg width="41" height="41" viewBox="0 0 41 41" fill="none" xmlns="http://www.w3.org/2000/svg">
<path d="M20.5 2.5625C25.2573 2.5625 29.8198 4.45234 33.1837 7.81627C36.5477 11.1802 38.4375 15.7427 38.4375 20.5C38.4375 25.2573 36.5477 29.8198 33.1837 33.1837C29.8198 36.5477 25.2573 38.4375 20.5 38.4375C15.7427 38.4375 11.1802 36.5477 7.81627 33.1837C4.45234 29.8198 2.5625 25.2573 2.5625 20.5C2.5625 15.7427 4.45234 11.1802 7.81627 7.81627C11.1802 4.45234 15.7427 2.5625 20.5 2.5625ZM18.2655 24.0388L14.2808 20.0516C14.138 19.9087 13.9684 19.7954 13.7817 19.7181C13.5951 19.6408 13.3951 19.601 13.193 19.601C12.991 19.601 12.791 19.6408 12.6043 19.7181C12.4177 19.7954 12.2481 19.9087 12.1052 20.0516C11.8168 20.3401 11.6547 20.7313 11.6547 21.1393C11.6547 21.5473 11.8168 21.9386 12.1052 22.2271L17.179 27.3009C17.3214 27.4445 17.4909 27.5584 17.6776 27.6362C17.8643 27.7139 18.0645 27.754 18.2668 27.754C18.469 27.754 18.6693 27.7139 18.856 27.6362C19.0427 27.5584 19.2121 27.4445 19.3546 27.3009L29.8608 16.7921C30.0056 16.6498 30.1207 16.4803 30.1997 16.2933C30.2786 16.1063 30.3197 15.9056 30.3206 15.7026C30.3216 15.4996 30.2823 15.2985 30.2051 15.1108C30.128 14.9231 30.0144 14.7525 29.871 14.6089C29.7275 14.4653 29.5571 14.3515 29.3695 14.2741C29.1819 14.1967 28.9808 14.1573 28.7778 14.158C28.5749 14.1587 28.374 14.1996 28.187 14.2783C27.9999 14.3569 27.8302 14.4719 27.6878 14.6165L18.2655 24.0388Z" fill="white"/>
</svg>
